PathFileType	4	(X/Y/Z)	/Users/itak/Documents/Research/Walk-IL/dataset/trc/00241_00009.trc
DataRate	CameraRate	NumFrames	NumMarkers	Units	OrigDataRate	OrigDataStartFrame	OrigNumFrames
100.000000	100.000000	4	53	mm	100.000000	546	874
Frame#	Time	RPSI			LPSI			L3			STRN			T10			C7			CLAV			RBAK			LBAK			LSHO			LUPA			LAEL			LAOL			LWTS			LWPS			LFRA			LIFD			LHPS			LHTS			RSHO			RUPA			RAEL			RAOL			RWTS			RWPS			RFRA			RIFD			RHTS			RHPS			RBHD			LFHD			RFHD			LBHD			LHIP			RHIP			RASI			LASI			LKNE			LTHI			LANK			LTIP			LTOE			LMT1			LMT5			LHEE			RKNE			RTHI			RANK			RTIP			RTOE			RMT1			RMT5			RHEE			
		X1	Y1	Z1	X2	Y2	Z2	X3	Y3	Z3	X4	Y4	Z4	X5	Y5	Z5	X6	Y6	Z6	X7	Y7	Z7	X8	Y8	Z8	X9	Y9	Z9	X10	Y10	Z10	X11	Y11	Z11	X12	Y12	Z12	X13	Y13	Z13	X14	Y14	Z14	X15	Y15	Z15	X16	Y16	Z16	X17	Y17	Z17	X18	Y18	Z18	X19	Y19	Z19	X20	Y20	Z20	X21	Y21	Z21	X22	Y22	Z22	X23	Y23	Z23	X24	Y24	Z24	X25	Y25	Z25	X26	Y26	Z26	X27	Y27	Z27	X28	Y28	Z28	X29	Y29	Z29	X30	Y30	Z30	X31	Y31	Z31	X32	Y32	Z32	X33	Y33	Z33	X34	Y34	Z34	X35	Y35	Z35	X36	Y36	Z36	X37	Y37	Z37	X38	Y38	Z38	X39	Y39	Z39	X40	Y40	Z40	X41	Y41	Z41	X42	Y42	Z42	X43	Y43	Z43	X44	Y44	Z44	X45	Y45	Z45	X46	Y46	Z46	X47	Y47	Z47	X48	Y48	Z48	X49	Y49	Z49	X50	Y50	Z50	X51	Y51	Z51	X52	Y52	Z52	X53	Y53	Z53	

547	5.46	396.7790222167969	1007.396057128906	-347.1495971679688	491.3389892578125	1017.106201171875	-420.62744140625	456.1277160644531	1099.671875	-397.6912841796875	616.9497680664062	1268.810668945312	-194.4341583251953	453.9182739257812	1225.938232421875	-392.6378173828125	505.2276000976562	1484.2275390625	-332.4793090820312	602.5026245117188	1387.609375	-207.6857452392578	396.5101013183594	1349.632934570312	-355.8317260742188	579.6964111328125	1447.315551757812	-419.0780334472656	678.0755004882812	1441.965576171875	-382.0200805664062	723.2485961914062	1326.874877929688	-455.4481201171875	766.1051635742188	1118.514526367188	-462.1319885253906	686.265869140625	1095.916137695312	-490.84912109375	792.1255493164062	896.4537963867188	-337.9751281738281	840.9352416992188	876.699462890625	-403.4359130859375	797.8689575195312	1014.220153808594	-445.9891052246094	822.1851196289062	706.6458129882812	-317.8843688964844	858.0079345703125	792.9382934570312	-377.6429443359375	839.865478515625	803.2711791992188	-312.4200439453125	406.2402954101562	1436.9541015625	-184.7594604492188	338.1458129882812	1373.414184570312	-163.6163024902344	276.5472412109375	1097.711547851562	-183.1010437011719	334.0216674804688	1091.67724609375	-259.3643798828125	361.0857238769531	867.7685546875	-107.3994674682617	277.4061279296875	863.97802734375	-119.3122100830078	272.9668579101562	1028.386962890625	-159.9873504638672	348.0728454589844	673.0885009765625	-110.7122802734375	354.9718017578125	744.9388427734375	-73.63472747802734	283.5180358886719	753.44384765625	-93.6290283203125	510.2759399414062	1646.937133789062	-255.70849609375	692.966796875	1645.959838867188	-119.2299575805664	604.9329833984375	1643.13330078125	-72.00846099853516	649.6809692382812	1646.58642578125	-278.4158325195312	663.4181518554688	958.1343383789062	-439.7883605957031	383.5278015136719	968.8126831054688	-202.4857940673828	474.3074035644531	1009.988952636719	-155.4328460693359	695.1010131835938	995.0872802734375	-329.5127258300781	591.0612182617188	484.0813598632812	-460.1640930175781	631.9744873046875	624.1774291992188	-453.6259155273438	421.1461486816406	45.78276062011719	-609.6033935546875	508.6629028320312	284.3492126464844	-548.31005859375	565.2725219726562	35.80215072631836	-442.609375	485.7537841796875	37.28844451904297	-447.2770080566406	533.42626953125	28.99322319030762	-555.07275390625	343.0486755371094	68.45175933837891	-602.22802734375	528.4522705078125	505.0957641601562	-99.834228515625	438.6816101074219	761.2940673828125	-121.1989974975586	610.8855590820312	26.23512649536133	-109.6257553100586	568.9596557617188	391.4253540039062	-83.51003265380859	713.6332397460938	58.5157356262207	73.76922607421875	739.5543823242188	48.95064163208008	8.740638732910156	622.382080078125	33.91388320922852	1.922451496124268	648.2819213867188	23.93499946594238	-184.5585174560547	
548	5.47	401.9764404296875	1008.082824707031	-341.2812805175781	497.2395629882812	1017.184814453125	-413.8905944824219	461.6260070800781	1099.785034179688	-391.4354858398438	620.298095703125	1269.500610351562	-186.7221832275391	458.9714965820312	1226.220825195312	-386.2354736328125	508.9011535644531	1484.597290039062	-325.624267578125	605.510009765625	1388.22509765625	-200.1619415283203	400.7375793457031	1349.707885742188	-349.9515075683594	583.9976806640625	1447.9052734375	-411.6817321777344	682.28271484375	1442.76806640625	-374.1151123046875	727.3295288085938	1327.4091796875	-447.5499572753906	768.61328125	1118.803588867188	-454.8301696777344	688.55517578125	1097.00244140625	-483.6058959960938	792.816650390625	895.2617797851562	-332.7654418945312	841.3365478515625	875.7984008789062	-398.5426025390625	799.516845703125	1014.139465332031	-439.6828002929688	820.9646606445312	704.931884765625	-314.8253479003906	857.57421875	791.5979614257812	-373.7181091308594	839.546630859375	801.3353881835938	-308.3262939453125	408.8850402832031	1436.869140625	-178.7642822265625	340.787353515625	1373.099975585938	-158.1183166503906	280.1774597167969	1097.276611328125	-178.14013671875	338.0255737304688	1091.391479492188	-253.9950103759766	363.5666809082031	867.0977783203125	-101.8981094360352	280.052978515625	863.5737915039062	-114.7878189086914	276.3811950683594	1027.987060546875	-155.2363739013672	350.1416625976562	672.4378662109375	-105.7991714477539	356.7128601074219	744.2359008789062	-68.71714782714844	285.5318908691406	752.9692993164062	-89.20558166503906	512.6710205078125	1647.287719726562	-248.5548706054688	694.3980102539062	1646.77392578125	-110.8353500366211	606.041748046875	1643.640869140625	-64.25289916992188	652.2520141601562	1647.430786132812	-270.3186950683594	669.3439331054688	957.6868896484375	-431.1679077148438	387.2239685058594	970.01416015625	-196.7198791503906	477.6804809570312	1011.133056640625	-148.7920684814453	700.0557861328125	995.0299682617188	-320.7040100097656	597.2520751953125	483.7708129882812	-451.9236755371094	637.870849609375	623.8170776367188	-444.8239135742188	422.5554504394531	49.32995986938477	-609.5692749023438	512.7308349609375	286.1524353027344	-543.8784790039062	565.4413452148438	35.72077560424805	-442.4806213378906	486.2905578613281	37.83385467529297	-447.2535095214844	533.9098510742188	29.22403717041016	-554.8790283203125	344.78271484375	73.40092468261719	-602.1403198242188	532.6748046875	506.5586547851562	-92.78440856933594	442.43701171875	762.5466918945312	-114.4071655273438	611.0233154296875	26.83983993530273	-108.9859161376953	572.6180419921875	391.9048461914062	-77.51005554199219	715.0023803710938	53.88261795043945	75.81785583496094	740.3848266601562	45.92594146728516	10.03377914428711	622.96826171875	33.30038452148438	2.768905401229858	648.4235229492188	24.68667221069336	-183.9816131591797	
549	5.48	407.1422424316406	1008.926940917969	-335.3773193359375	503.0957641601562	1017.511596679688	-407.0497436523438	467.0599670410156	1100.17236328125	-385.1562805175781	623.5446166992188	1270.425659179688	-178.9642639160156	464.1955261230469	1226.790649414062	-379.7516784667969	512.5728149414062	1485.211059570312	-318.7661437988281	608.4522094726562	1389.084716796875	-192.593505859375	404.9608459472656	1350.037475585938	-344.0628967285156	588.3475341796875	1448.750610351562	-404.2309875488281	686.4982299804688	1443.8349609375	-366.0923767089844	731.433349609375	1328.21630859375	-439.5293884277344	771.0139770507812	1119.384887695312	-447.56640625	690.722900390625	1098.417236328125	-476.3427429199219	793.44091796875	894.3777465820312	-327.6524353027344	841.61181640625	875.1827392578125	-393.8006591796875	801.0426025390625	1014.345581054688	-433.4451904296875	819.5350341796875	703.5209350585938	-312.0132751464844	856.9667358398438	790.5498046875	-369.9908447265625	839.101318359375	799.648193359375	-304.4175720214844	411.4826354980469	1437.093872070312	-172.79296875	343.3829956054688	1373.109375	-152.6592254638672	283.8160705566406	1097.148315429688	-173.1452331542969	341.9417724609375	1091.38037109375	-248.6545257568359	366.2329406738281	866.8179931640625	-96.28131866455078	282.8851318359375	863.5072631835938	-110.0877227783203	279.8404235839844	1027.90087890625	-150.3844146728516	352.5451049804688	672.1614990234375	-100.7251663208008	358.7047119140625	743.9003295898438	-63.69348907470703	287.8255310058594	752.8572387695312	-84.63501739501953	515.0466918945312	1647.85205078125	-241.3873596191406	695.7617797851562	1647.762573242188	-102.3935928344727	607.1307373046875	1644.328735351562	-56.45059585571289	654.7950439453125	1648.479614257812	-262.1729736328125	675.206298828125	957.5394287109375	-422.390869140625	390.7745361328125	971.2919921875	-191.0395965576172	480.8222961425781	1012.531921386719	-142.0952453613281	704.8703002929688	995.2625122070312	-311.7175903320312	603.9527587890625	483.5754089355469	-443.1633911132812	643.9976806640625	623.6339111328125	-435.5726318359375	424.2644958496094	53.39447021484375	-609.4686889648438	517.2911376953125	288.2903137207031	-539.1038208007812	565.6217041015625	35.66848754882812	-442.3616027832031	486.9122314453125	38.48398971557617	-447.1829833984375	534.4962158203125	29.52424240112305	-554.58056640625	346.9074401855469	79.04856109619141	-601.903076171875	536.5820922851562	508.0057067871094	-85.84559631347656	446.0663757324219	763.9345703125	-107.7533111572266	611.0831298828125	27.38021850585938	-108.3919067382812	575.9208984375	392.4079284667969	-71.71408843994141	716.0767211914062	50.01436614990234	77.49945831298828	740.963134765625	43.47504425048828	11.07428550720215	623.3381958007812	32.94689559936523	3.501961231231689	648.4682006835938	25.27972793579102	-183.4716033935547	
550	5.49	412.2322082519531	1009.866455078125	-329.3700561523438	508.8457641601562	1018.052978515625	-400.0762329101562	472.3798217773438	1100.804809570312	-378.7989196777344	626.6661376953125	1271.547607421875	-171.1843719482422	469.5148620605469	1227.589599609375	-373.1886596679688	516.227783203125	1486.0302734375	-311.9230651855469	611.318115234375	1390.151733398438	-184.9967346191406	409.1681518554688	1350.575927734375	-338.1627197265625	592.736572265625	1449.8115234375	-396.7422180175781	690.7084350585938	1445.1201171875	-357.9576721191406	735.5802001953125	1329.27001953125	-431.3901977539062	773.3465576171875	1120.224853515625	-440.3486328125	692.813720703125	1100.119995117188	-469.0871887207031	794.0086669921875	893.775390625	-322.6314392089844	841.8092041015625	874.8453979492188	-389.1843566894531	802.4813232421875	1014.807495117188	-427.2647705078125	817.8901977539062	702.4130859375	-309.4167785644531	856.2091064453125	789.7642822265625	-366.4107971191406	838.547607421875	798.1954956054688	-300.6596069335938	414.0262756347656	1437.600463867188	-166.8529205322266	345.926513671875	1373.415771484375	-147.2541351318359	287.4312133789062	1097.305786132812	-168.1426696777344	345.8804321289062	1091.623291015625	-243.3056793212891	369.0724792480469	866.9251708984375	-90.54888916015625	285.8867797851562	863.753662109375	-105.2212371826172	283.3097839355469	1028.100952148438	-145.4599151611328	355.2742919921875	672.2534790039062	-95.46811676025391	360.9569091796875	743.9277954101562	-58.52719497680664	290.4028625488281	753.0857543945312	-79.91067504882812	517.4024047851562	1648.60546875	-234.2432250976562	697.050048828125	1648.89306640625	-93.92678070068359	608.17333984375	1645.162719726562	-48.63702011108398	657.3097534179688	1649.703247070312	-254.0032196044922	680.9564208984375	957.6962890625	-413.4938659667969	394.2030639648438	972.5573120117188	-185.3975677490234	483.7730102539062	1014.094909667969	-135.3111724853516	709.5223999023438	995.7761840820312	-302.6127624511719	611.2269897460938	483.4674987792969	-433.9003295898438	650.4063720703125	623.6119384765625	-425.9095458984375	426.3231506347656	57.9820556640625	-609.26904296875	522.4188842773438	290.7622680664062	-533.9686279296875	565.8132934570312	35.64619064331055	-442.2673950195312	487.6126708984375	39.23979568481445	-447.0633544921875	535.2033081054688	29.90846252441406	-554.1682739257812	349.5011291503906	85.40966033935547	-601.4818115234375	540.1049194335938	509.2746887207031	-79.20518493652344	449.5617065429688	765.3168334960938	-101.2200622558594	611.101318359375	27.83629608154297	-107.8708953857422	578.8501586914062	392.8388366699219	-66.25675201416016	716.9148559570312	46.84685897827148	78.82926940917969	741.3590698242188	41.49306106567383	11.89184379577637	623.540283203125	32.77053070068359	4.118470191955566	648.4613037109375	25.72964286804199	-183.0347442626953	
